<svg width="44" height="44" viewBox="0 0 44 44" fill="none" xmlns="http://www.w3.org/2000/svg">
<path d="M41.9841 12.8029C40.2234 8.98405 37.4063 5.74912 33.8656 3.48038C30.325 1.21164 26.2088 0.00393671 22.0037 0H21.7578V18.0408C26.842 18.0408 31.2346 20.5768 32.7286 24.2224H34.8403C35.3516 24.2217 35.8438 24.4169 36.2154 24.768C36.5871 25.1191 36.8101 25.5993 36.8384 26.1098C36.8384 26.3773 36.8599 26.6539 36.8599 26.9275C36.8635 29.2307 36.3389 31.504 35.3264 33.5727C34.3139 35.6414 32.8405 37.4503 31.0195 38.8604C30.4039 39.3394 29.6476 39.6019 28.8677 39.6074H21.7578V44H22.0037C25.6934 44 29.3237 43.0719 32.5607 41.3011C35.7977 39.5303 38.5372 36.9737 40.5271 33.8666C42.5171 30.7595 43.6935 27.2018 43.9481 23.521C44.2027 19.8401 43.5273 16.1543 41.9841 12.8029ZM27.4629 6.44292L26.6115 6.89786L26.7744 5.9511L26.0889 5.28099L27.0387 5.14573L27.4629 4.28504L27.8871 5.14573L28.837 5.28099L28.1484 5.9511L28.3113 6.89786L27.4629 6.44292ZM32.538 15.2804C31.9981 15.2802 31.4648 15.1621 30.9753 14.9344C30.4858 14.7068 30.0519 14.3751 29.7038 13.9624C29.3557 13.5498 29.1019 13.0661 28.96 12.5452C28.8181 12.0244 28.7916 11.4788 28.8824 10.9466C28.9731 10.4144 29.1789 9.90847 29.4853 9.46403C29.7918 9.01959 30.1916 8.64738 30.6567 8.37338C31.1219 8.09938 31.6412 7.9302 32.1785 7.87763C32.7158 7.82506 33.2581 7.89038 33.7675 8.06902C33.0445 8.32618 32.4192 8.80136 31.9777 9.42901C31.5362 10.0567 31.3004 10.8059 31.3027 11.5732C31.3051 12.3406 31.5455 13.0883 31.9909 13.7132C32.4362 14.3382 33.0645 14.8095 33.7891 15.0622C33.3881 15.2079 32.9646 15.2818 32.538 15.2804ZM36.8876 14.4351L36.0361 13.9894L35.1877 14.4351L35.3506 13.4914L34.6621 12.8213L35.6119 12.683L36.0361 11.8223L36.4603 12.683L37.4101 12.8213L36.7246 13.4914L36.8876 14.4351Z" fill="#0B1E13"/>
<path d="M31.6373 25.7164H11.8782C12.6682 22.209 16.7965 19.5347 21.7578 19.5347C26.7191 19.5347 30.8473 22.209 31.6373 25.7164Z" fill="#FF9933"/>
<path d="M35.3506 26.9275C35.352 29.0037 34.8782 31.0527 33.9655 32.9175C33.0528 34.7823 31.7254 36.4135 30.085 37.6862C29.728 37.9635 29.2891 38.1148 28.837 38.1165H14.6663C14.2142 38.1148 13.7753 37.9635 13.4183 37.6862C11.7778 36.4135 10.4504 34.7823 9.53775 32.9175C8.62505 31.0527 8.15125 29.0037 8.15265 26.9275C8.15265 26.6816 8.15265 26.4357 8.1711 26.1928C8.17818 26.064 8.2344 25.9428 8.32818 25.8541C8.42197 25.7655 8.54617 25.7162 8.67522 25.7164H34.8404C34.9694 25.7162 35.0936 25.7655 35.1874 25.8541C35.2812 25.9428 35.3374 26.064 35.3445 26.1928C35.3506 26.4357 35.3506 26.6816 35.3506 26.9275Z" fill="#339966"/>
<path d="M21.6625 0V1.99497C17.1263 2.03849 12.7421 3.6355 9.24079 6.51977C8.81799 5.95737 8.27507 5.49636 7.65157 5.17032C10.3905 2.89614 13.63 1.30432 17.1039 0.525641C18.601 0.192574 20.1288 0.0164079 21.6625 0Z" fill="#0B1E13"/>
<path d="M21.6625 42.002V43.9969C19.6733 43.9761 17.6962 43.6855 15.7851 43.1332C1.38386 38.8082 -3.07331 23.7275 2.04476 12.5631C2.5014 13.05 3.05688 13.4336 3.67393 13.6881C-2.42779 26.1621 7.59624 42.3001 21.6625 42.002Z" fill="#0B1E13"/>
<path d="M12.3854 14.6595C12.3348 14.6578 12.2858 14.6418 12.244 14.6134L9.20389 12.4985C9.17684 12.4799 9.15372 12.4562 9.13584 12.4287C9.11796 12.4012 9.10567 12.3704 9.09967 12.3382C9.09368 12.3059 9.0941 12.2728 9.1009 12.2407C9.10771 12.2086 9.12077 12.1782 9.13934 12.1511C9.15791 12.1241 9.18162 12.101 9.20913 12.0831C9.23663 12.0652 9.26739 12.0529 9.29964 12.0469C9.3319 12.0409 9.36502 12.0414 9.39711 12.0482C9.4292 12.055 9.45964 12.068 9.48669 12.0866L12.5299 14.2045C12.5743 14.2347 12.6077 14.2783 12.6253 14.329C12.6428 14.3797 12.6436 14.4347 12.6273 14.4859C12.6111 14.537 12.5787 14.5815 12.5352 14.6128C12.4916 14.6441 12.439 14.6605 12.3854 14.6595Z" fill="#FFBF85"/>
<path d="M9.95701 8.40098C9.90924 8.40119 9.86247 8.3873 9.82256 8.36105C9.78264 8.33481 9.75135 8.29738 9.73261 8.25344C9.71876 8.22382 9.71096 8.19174 9.70966 8.15907C9.70835 8.1264 9.71358 8.09379 9.72503 8.06317C9.73648 8.03254 9.75392 8.0045 9.77634 7.9807C9.79875 7.95689 9.82569 7.9378 9.85557 7.92453L11.4755 7.18064C11.5054 7.16712 11.5376 7.15961 11.5704 7.15855C11.6032 7.15749 11.6358 7.16289 11.6665 7.17445C11.6972 7.18601 11.7253 7.2035 11.7492 7.22593C11.7732 7.24835 11.7924 7.27526 11.806 7.30513C11.8195 7.335 11.827 7.36725 11.8281 7.40002C11.8291 7.43279 11.8237 7.46546 11.8122 7.49614C11.8006 7.52683 11.7831 7.55493 11.7607 7.57886C11.7383 7.60278 11.7113 7.62205 11.6815 7.63558L10.0615 8.37639C10.0288 8.39182 9.99318 8.4002 9.95701 8.40098Z" fill="#FFBF85"/>
<path d="M12.7911 10.6326L10.332 10.6173C10.266 10.6173 10.2026 10.591 10.156 10.5443C10.1093 10.4976 10.083 10.4343 10.083 10.3683C10.0838 10.302 10.1107 10.2386 10.1579 10.192C10.2051 10.1454 10.2688 10.1193 10.3351 10.1193L12.7942 10.1347C12.8605 10.1355 12.9239 10.1624 12.9705 10.2096C13.0171 10.2568 13.0432 10.3204 13.0432 10.3867C13.0432 10.4195 13.0367 10.452 13.0239 10.4823C13.0112 10.5125 12.9925 10.5399 12.969 10.5628C12.9455 10.5857 12.9177 10.6037 12.8871 10.6157C12.8566 10.6277 12.824 10.6335 12.7911 10.6326Z" fill="#FFBF85"/>
<path d="M5.89944 16.596C5.86674 16.5956 5.83445 16.5888 5.80439 16.5759C5.77434 16.563 5.74711 16.5443 5.72428 16.5209C5.70144 16.4975 5.68344 16.4698 5.6713 16.4395C5.65916 16.4091 5.65312 16.3766 5.65353 16.344L5.6689 13.9186C5.6689 13.8526 5.69513 13.7893 5.74183 13.7426C5.78852 13.6959 5.85185 13.6696 5.91789 13.6696C5.98392 13.6696 6.04725 13.6959 6.09395 13.7426C6.14064 13.7893 6.16687 13.8526 6.16687 13.9186V16.3409C6.16736 16.3756 6.16068 16.41 6.14725 16.442C6.13382 16.474 6.11393 16.5029 6.08883 16.5268C6.06372 16.5508 6.03395 16.5693 6.00136 16.5812C5.96877 16.5931 5.93407 16.5981 5.89944 16.596Z" fill="#FFBF85"/>
<path d="M9.09938 16.0335C9.05629 16.0336 9.01394 16.0223 8.97667 16.0007C8.9394 15.9791 8.90855 15.948 8.88728 15.9105L7.65771 13.8295C7.64057 13.8015 7.62919 13.7704 7.62424 13.738C7.61929 13.7056 7.62087 13.6726 7.62889 13.6408C7.63691 13.609 7.6512 13.5791 7.67093 13.5529C7.69066 13.5267 7.71543 13.5048 7.74378 13.4883C7.80045 13.4545 7.86822 13.4446 7.93219 13.4607C7.99617 13.4769 8.05112 13.5177 8.08499 13.5744L9.31455 15.6554C9.33655 15.6935 9.34819 15.7367 9.34833 15.7806C9.34847 15.8246 9.3371 15.8679 9.31534 15.9061C9.29358 15.9443 9.2622 15.9762 9.22432 15.9986C9.18643 16.0209 9.14336 16.0329 9.09938 16.0335Z" fill="#FFBF85"/>
<path d="M9.18238 9.357C9.17957 9.84424 9.08081 10.3261 8.89174 10.7752C8.70268 11.2243 8.42701 11.6317 8.08049 11.9742C7.73397 12.3168 7.32337 12.5877 6.87214 12.7715C6.42091 12.9554 5.93789 13.0485 5.45065 13.0457C5.00384 13.0439 4.56111 12.9606 4.14424 12.7998C3.49579 12.5508 2.93025 12.1248 2.51199 11.5702C3.63969 9.45628 5.10235 7.53894 6.84314 5.8927C7.53774 6.16571 8.13319 6.64299 8.55084 7.26151C8.9685 7.88004 9.18871 8.6107 9.18238 9.357Z" fill="#FFBF85"/>
</svg>
